<svg xmlns="http://www.w3.org/2000/svg" viewBox="0 0 44.77 44.77"><defs><style>.cls-1{fill:#00a8ba;}.cls-2{fill:#fff;}</style></defs><g id="圖層_1" data-name="圖層 1"><circle class="cls-1" cx="22.39" cy="22.39" r="22.39"/><path class="cls-2" d="M34.55,7.6h-18a1.8,1.8,0,0,0-1.64,1.93V12.7H10.57a2,2,0,0,0-2,2V34.2a3.66,3.66,0,0,0,3.55,3.65H31.78c2.43,0,4.41-2.48,4.41-5.52V9.53A1.78,1.78,0,0,0,34.55,7.6ZM9.86,34.2V14.69a.71.71,0,0,1,.71-.72h4.35V33c0,1.79-1,3.34-2.33,3.52l-.43.06A2.37,2.37,0,0,1,9.86,34.2Zm25-1.86c0,2.34-1.4,4.24-3.13,4.24H15.29a3.65,3.65,0,0,0,.9-2.38V9.53c0-.4.22-.66.37-.66h18c.15,0,.36.26.36.66Z"/><path class="cls-2" d="M32.4,29.15H18.62a.64.64,0,1,1,0-1.27H32.4a.64.64,0,0,1,0,1.27Z"/><path class="cls-2" d="M32.4,25.42H18.62a.64.64,0,0,1,0-1.28H32.4a.64.64,0,0,1,0,1.28Z"/><path class="cls-2" d="M32.4,32.89H18.62a.64.64,0,0,1,0-1.28H32.4a.64.64,0,0,1,0,1.28Z"/><rect class="cls-2" x="18.65" y="18.4" width="13.65" height="2.91"/><path class="cls-2" d="M32.3,22H18.65a.63.63,0,0,1-.63-.63V18.4a.63.63,0,0,1,.63-.63H32.3a.63.63,0,0,1,.64.63v2.92A.63.63,0,0,1,32.3,22Zm-13-1.27H31.67V19H19.29Z"/><polygon class="cls-2" points="20.8 15.14 18.93 12.19 18.42 12.19 18.42 16.14 18.97 16.14 18.97 13.23 20.84 16.14 21.34 16.14 21.34 12.19 20.8 12.19 20.8 15.14"/><polygon class="cls-2" points="22.59 12.19 22.32 12.19 22.32 16.14 22.59 16.14 22.88 16.14 24.86 16.14 24.86 15.61 22.88 15.61 22.88 14.44 24.56 14.44 24.56 13.91 22.88 13.91 22.88 12.71 24.86 12.71 24.86 12.19 22.88 12.19 22.59 12.19"/><polygon class="cls-2" points="28.52 15.29 27.71 12.19 27.33 12.19 26.52 15.29 25.82 12.19 25.24 12.19 26.21 16.14 26.77 16.14 27.54 13.38 28.27 16.14 28.83 16.14 29.8 12.19 29.22 12.19 28.52 15.29"/><path class="cls-2" d="M32.79,14.42a1,1,0,0,0-.4-.33,3.14,3.14,0,0,0-.6-.17h-.1a4.15,4.15,0,0,1-.48-.12.61.61,0,0,1-.29-.17.43.43,0,0,1-.11-.32h0a.53.53,0,0,1,.22-.46,1,1,0,0,1,.63-.16,1.19,1.19,0,0,1,.45.08,1.69,1.69,0,0,1,.45.25l.32-.44a1.8,1.8,0,0,0-.4-.23,2.12,2.12,0,0,0-.4-.14,2,2,0,0,0-.42,0,1.91,1.91,0,0,0-.76.14,1,1,0,0,0-.48.4,1.12,1.12,0,0,0-.16.62h0a1.09,1.09,0,0,0,.17.65.87.87,0,0,0,.43.31,4.1,4.1,0,0,0,.65.16h.07a2.55,2.55,0,0,1,.44.11.68.68,0,0,1,.28.18.49.49,0,0,1,.11.33h0a.52.52,0,0,1-.24.45,1.25,1.25,0,0,1-.67.16,1.87,1.87,0,0,1-.59-.1,1.68,1.68,0,0,1-.5-.29l-.34.42a2.07,2.07,0,0,0,.41.27,2.48,2.48,0,0,0,.48.17,3.1,3.1,0,0,0,.54.05,2.29,2.29,0,0,0,.79-.13,1.09,1.09,0,0,0,.49-.4A1,1,0,0,0,33,15h0A1,1,0,0,0,32.79,14.42Z"/></g></svg>