<svg xmlns="http://www.w3.org/2000/svg" viewBox="0 0 44.77 44.77"><defs><style>.cls-1{fill:#00a8ba;}.cls-2{fill:#fff;}</style></defs><g id="圖層_1" data-name="圖層 1"><circle class="cls-1" cx="22.39" cy="22.39" r="22.39"/><path class="cls-2" d="M22.23,24.86a.52.52,0,0,0-.52.52v1.18a.52.52,0,0,0,.52.52.52.52,0,0,0,.52-.52V25.38A.52.52,0,0,0,22.23,24.86Z"/><path class="cls-2" d="M31.15,33.54v-4a8.8,8.8,0,0,0-5.32-8.06A7.64,7.64,0,0,0,30,14.71V11.32h.1a.77.77,0,0,0,.77-.77V8.68a.78.78,0,0,0-.77-.77H14.44a.78.78,0,0,0-.77.77v1.87a.77.77,0,0,0,.77.77h.3v3.39a7.64,7.64,0,0,0,4.2,6.81,8.8,8.8,0,0,0-5.32,8.06v4h-.35a.77.77,0,0,0-.77.77v1.78a.77.77,0,0,0,.77.77H31.5a.77.77,0,0,0,.77-.77V34.31a.77.77,0,0,0-.77-.77Zm-14.57-17a5.88,5.88,0,0,1-.3-1.78V11.36H28.49v3.35a6,6,0,0,1-.63,2.64,5.4,5.4,0,0,1-2.17.45,6.45,6.45,0,0,1-3.54-1.12,5.49,5.49,0,0,0-3-.92A5.23,5.23,0,0,0,16.58,16.49Zm.86,1A4,4,0,0,1,19.19,17a4.18,4.18,0,0,1,2.27.72,7.84,7.84,0,0,0,4.23,1.32h.16a4.66,4.66,0,0,1-2.93,1.14L21,20.11A4.64,4.64,0,0,1,17.44,17.47ZM28.72,32.59H16.24V29.8a8.06,8.06,0,0,1,2.53-.35,14,14,0,0,1,2.57.25v0l.75.11,1,.18V30a19,19,0,0,0,2,.11,18.36,18.36,0,0,0,3.65-.36Zm-3.65-3.8a17.93,17.93,0,0,1-2.45-.17v-.11a.38.38,0,0,0-.39-.39.39.39,0,0,0-.38.37h-.1a15.14,15.14,0,0,0-3-.31,8.21,8.21,0,0,0-3.57.67,7.22,7.22,0,0,1,6.54-6.42.29.29,0,0,0,0,.1V23a.52.52,0,0,0,.52.52.52.52,0,0,0,.52-.52v-.52a.51.51,0,0,0,0-.13,7.23,7.23,0,0,1,6.75,5.83A16.93,16.93,0,0,1,25.07,28.79Z"/></g></svg>