<svg xmlns="http://www.w3.org/2000/svg" viewBox="0 0 44.77 44.77"><defs><style>.cls-1{fill:#00a8ba;}.cls-2{fill:#fff;}</style></defs><g id="圖層_1" data-name="圖層 1"><circle class="cls-1" cx="22.39" cy="22.39" r="22.39"/><path class="cls-2" d="M19.93,22.21a.87.87,0,0,1-.84-1L19.47,19l-1.61-1.57a.83.83,0,0,1-.22-.87.86.86,0,0,1,.69-.58l2.23-.33,1-2a.88.88,0,0,1,1.53,0l1,2L26.3,16a.85.85,0,0,1,.47,1.45L25.16,19l.38,2.22a.85.85,0,0,1-1.23.9l-2-1.05-2,1.05A1,1,0,0,1,19.93,22.21ZM19.74,21Zm2.58-1.24a.78.78,0,0,1,.39.1l1.46.76L23.89,19a.84.84,0,0,1,.24-.75l1.18-1.15-1.62-.23a.86.86,0,0,1-.65-.47l-.72-1.47-.73,1.47a.86.86,0,0,1-.65.47l-1.62.23,1.18,1.15a.84.84,0,0,1,.24.75l-.27,1.62,1.45-.76A.79.79,0,0,1,22.32,19.75Zm3.8-2.54h0Zm-5.66-1.38h0Zm.31-.22h0Zm3.09,0h0ZM22,14.18Z"/><path class="cls-2" d="M37,12.44l-.09-.73h-4.8V8a.63.63,0,0,0-.63-.62H13.26a.63.63,0,0,0-.63.62v3.76H7.83l-.1.73c-.05.41-1.16,10.09,7,16.36l-1-3.24a17.61,17.61,0,0,1-4.3-12.18h3.28v4.24a11.25,11.25,0,0,0,1,4.67,8.2,8.2,0,0,0,1.26,1.92,22.21,22.21,0,0,1,4.21,7,15.85,15.85,0,0,1,.35,3,3,3,0,0,0-1.4,1.33A3,3,0,0,0,16,38.39v.12H28.79v-.12a3,3,0,0,0-2.12-2.83,2.94,2.94,0,0,0-1.39-1.33,15.15,15.15,0,0,1,.34-2.95v-.05a22.32,22.32,0,0,1,4.22-7,8.25,8.25,0,0,0,1.26-1.93,11.26,11.26,0,0,0,1-4.64V13.38h3.28a17.66,17.66,0,0,1-4.3,12.18L30,28.8C38.17,22.53,37.06,12.85,37,12.44Zm-6.15,5.18A9.76,9.76,0,0,1,30,21.74a6.82,6.82,0,0,1-1.07,1.64,23.22,23.22,0,0,0-4.47,7.5l0,.1A16.32,16.32,0,0,0,24,33.93h-3.3a16.4,16.4,0,0,0-.41-3.05,23.11,23.11,0,0,0-4.45-7.49,6.85,6.85,0,0,1-1.07-1.62,9.92,9.92,0,0,1-.91-4.15v-9h17Z"/></g></svg>