<svg width="129" height="31" viewBox="0 0 129 31" fill="none" xmlns="http://www.w3.org/2000/svg">
<g clip-path="url(#clip0)">
<path d="M46.4617 22.9491C45.7889 24.6531 44.8588 26.2969 43.6121 27.8605C43.533 27.9607 43.4142 27.9807 43.3153 27.9206L41.1781 26.8181C41.0396 26.7379 41 26.5575 41.1188 26.4372C42.405 24.9938 43.3747 23.5505 44.0673 22.1072C44.1266 21.9869 44.2454 21.9468 44.3641 21.9869L46.3232 22.6284C46.4419 22.6685 46.5013 22.8289 46.4617 22.9491ZM52.9523 19.2807C52.9523 20.0625 52.7743 20.6238 52.4378 21.0046C52.1014 21.3855 51.6859 21.586 51.2109 21.6461C50.736 21.7063 49.806 21.7464 48.4208 21.7464C48.3218 21.7464 48.2229 21.6862 48.1833 21.5659L47.5896 19.7016C47.5303 19.5413 47.6688 19.3809 47.8271 19.3809C48.3218 19.4009 48.7176 19.4009 49.0342 19.4009C49.6872 19.4009 50.1028 19.3608 50.2611 19.2606C50.4194 19.1604 50.4986 19 50.4986 18.7394V17.5567C50.4986 17.3763 50.3205 17.256 50.1622 17.3362C48.8363 17.8975 47.4313 18.4187 45.9076 18.8998C45.7889 18.9399 45.6701 18.8797 45.6306 18.7795L45.2744 18.138C45.1556 17.9376 44.8786 17.9777 44.8192 18.1982C44.4828 19.5613 43.8694 20.8242 42.9591 21.9869C42.8799 22.1072 42.7018 22.1072 42.6029 22.007L41.0792 20.5636C40.9802 20.4834 40.9802 20.3231 41.0594 20.2228C42.128 18.8797 42.6425 17.0154 42.6425 14.67V9.9792C42.6425 9.83887 42.7612 9.73864 42.8799 9.73864H52.6951C52.8336 9.73864 52.9326 9.85892 52.9326 9.9792V19.2807H52.9523ZM54.7333 8.29531L52.893 9.21744C52.7743 9.27758 52.6357 9.23749 52.5764 9.11721C52.3785 8.73633 52.1014 8.29531 51.765 7.77411C51.7057 7.69392 51.6265 7.65383 51.5276 7.67388C48.2624 8.17503 45.0765 8.49578 41.9499 8.6361C41.8311 8.6361 41.7322 8.55591 41.6926 8.45568L41.2375 6.63147C41.1979 6.5112 41.2771 6.39092 41.3958 6.35083C42.7018 5.80958 43.9485 4.40634 45.1358 2.16116C45.1952 2.06092 45.3139 2.00079 45.4129 2.04088L47.5896 2.64227C47.7479 2.68236 47.8271 2.86278 47.7282 3.0031C47.0751 4.0856 46.3627 5.02777 45.591 5.82962C45.4327 5.98999 45.5514 6.25059 45.7691 6.25059C47.273 6.17041 48.6186 6.05013 49.7862 5.84967C49.9643 5.80958 50.0632 5.58907 49.9247 5.44874C49.6476 5.10796 49.3508 4.78722 49.0936 4.48652C48.9946 4.36624 49.0144 4.18583 49.1529 4.10564L50.9537 3.12338C51.0526 3.06324 51.1714 3.08328 51.2505 3.16347C52.7545 4.76717 53.9616 6.37087 54.8323 7.97457C54.9114 8.0748 54.8521 8.21513 54.7333 8.29531ZM50.4788 14.9908V12.1041C50.4788 11.9638 50.36 11.8635 50.2413 11.8635H45.4327C45.2942 11.8635 45.1952 11.9838 45.1952 12.1041V12.4248C45.1952 12.5451 45.2942 12.6654 45.4129 12.6654C46.8575 12.7857 48.1635 12.9861 49.3508 13.2668C49.4893 13.3069 49.5685 13.4472 49.5289 13.5875L48.9946 15.0309C48.955 15.1511 48.8363 15.2113 48.7176 15.1912C47.6094 14.9507 46.5013 14.7903 45.4327 14.67C45.2942 14.65 45.1754 14.7703 45.1556 14.9106C45.1556 15.4117 45.1161 15.953 45.0765 16.5143C45.0567 16.6747 45.215 16.815 45.3733 16.7749C47.2928 16.3138 48.955 15.7926 50.3403 15.1912C50.4392 15.1712 50.4788 15.091 50.4788 14.9908ZM52.6357 27.2992L50.4194 27.8003C50.2809 27.8404 50.1622 27.7402 50.1226 27.5999C49.8653 26.1966 49.43 24.7332 48.8165 23.1897C48.7572 23.0494 48.8363 22.889 48.9946 22.8489L51.0922 22.3678C51.211 22.3477 51.3297 22.4079 51.3693 22.5081C52.1212 24.2922 52.5962 25.7757 52.8336 26.9784C52.8534 27.1388 52.7545 27.2791 52.6357 27.2992ZM59.6607 27.4595L57.4246 27.9807C57.3058 28.0008 57.1871 27.9406 57.1475 27.8404C56.4945 26.2167 55.7623 24.7332 54.9312 23.3501C54.8521 23.2097 54.9114 23.0293 55.0697 22.9892L57.1475 22.468C57.2465 22.448 57.3652 22.4881 57.4246 22.5883C58.5327 24.4125 59.3441 25.936 59.819 27.1588C59.8982 27.2791 59.7992 27.4395 59.6607 27.4595ZM65.9535 10.8211C65.9535 10.9615 65.8347 11.0617 65.716 11.0617H57.5433C55.9404 11.0617 55.1489 10.2198 55.1489 8.53587V2.52199C55.1489 2.38166 55.2676 2.28143 55.3863 2.28143H57.4246C57.5631 2.28143 57.662 2.40171 57.662 2.52199V4.06555C57.662 4.20587 57.7808 4.30611 57.8995 4.30611H65.0036C65.1421 4.30611 65.2411 4.42638 65.2411 4.54666V6.19045C65.2411 6.33078 65.1224 6.43101 65.0036 6.43101H57.8995C57.761 6.43101 57.662 6.55129 57.662 6.67157V8.21513C57.662 8.65615 57.9391 8.8967 58.4932 8.8967H65.716C65.8545 8.8967 65.9535 9.01698 65.9535 9.13726V10.8211ZM66.2899 18.0378C66.4086 18.0779 66.4878 18.1982 66.4482 18.3385C66.1909 19.4811 65.8545 20.303 65.4785 20.7641C65.0828 21.2652 64.5287 21.5459 63.8163 21.6461C63.1039 21.7464 61.7781 21.7864 59.819 21.7864C58.691 21.7864 57.8204 21.7464 57.1871 21.6862C56.5737 21.6261 56.0592 21.4056 55.703 21.0247C55.327 20.6438 55.1489 20.0224 55.1489 19.1002V12.5251C55.1489 12.3848 55.2676 12.2845 55.3863 12.2845H57.4246C57.5631 12.2845 57.662 12.4048 57.662 12.5251V13.9684C57.662 14.1087 57.7808 14.209 57.8995 14.209H65.0432C65.1817 14.209 65.2807 14.3292 65.2807 14.4495V16.1534C65.2807 16.2938 65.1619 16.394 65.0432 16.394H57.8995C57.761 16.394 57.662 16.5143 57.662 16.6346V18.6592C57.662 19.0201 57.7808 19.2406 58.0182 19.3408C58.2557 19.441 59.0077 19.4811 60.2741 19.4811C61.5604 19.4811 62.3717 19.4611 62.7477 19.4009C63.1237 19.3408 63.4007 19.1804 63.5986 18.8797C63.7767 18.6191 63.935 18.1781 64.0538 17.5567C64.0736 17.4164 64.2319 17.3362 64.3704 17.3763L66.2899 18.0378ZM66.4284 27.0586L64.3308 27.9807C64.2121 28.0409 64.0736 27.9807 64.0142 27.8605C63.3612 26.4773 62.3915 24.9938 61.0855 23.4302C60.9865 23.31 61.0261 23.1095 61.1646 23.0494L63.1039 22.1874C63.2029 22.1473 63.3216 22.1673 63.381 22.2475C64.9047 24.0918 65.9535 25.5752 66.5273 26.6978C66.6065 26.8582 66.5669 26.9985 66.4284 27.0586Z" fill="#003A44"/>
<path d="M95.0625 4.86662H74.1064C73.9679 4.86662 73.8689 4.9869 73.8689 5.10717V16.0524C73.8689 21.3647 73.3148 25.2737 72.2265 27.7594C72.1671 27.8998 71.989 27.9399 71.8703 27.8597L70.0101 26.6569C69.9112 26.5968 69.8716 26.4765 69.9112 26.3562C70.9204 23.8103 71.4151 20.3824 71.4151 16.0524V2.90208C71.4151 2.76176 71.5339 2.66153 71.6526 2.66153H95.0427C95.1813 2.66153 95.2802 2.78181 95.2802 2.90208V4.60602C95.3 4.74634 95.1813 4.86662 95.0625 4.86662ZM94.3303 25.0933C94.3303 26.5366 93.9544 27.3786 93.2222 27.6392C92.49 27.8797 91.0652 27.98 88.928 27.8998C88.8291 27.8998 88.7302 27.8396 88.7104 27.7394L88.1167 26.0956C88.0574 25.9352 88.1761 25.7548 88.3542 25.7548C90.4518 25.7548 91.5599 25.7147 91.7182 25.6546C91.8766 25.5945 91.9557 25.4541 91.9557 25.2336V21.9661C91.9557 21.8258 91.837 21.7255 91.7182 21.7255H89.9175C89.7196 21.7255 89.6009 21.9661 89.7196 22.1264C90.2737 22.9083 90.7486 23.67 91.1444 24.4318C91.2037 24.5721 91.1444 24.7325 91.0059 24.7726L89.4228 25.3339C89.304 25.3739 89.1853 25.3138 89.1259 25.2136C89.0864 25.1334 89.027 25.0532 88.9874 24.9931C88.9281 24.9129 88.8489 24.8728 88.75 24.8928C85.5046 25.3138 82.4968 25.5945 79.7461 25.7548C79.6472 25.7548 79.5482 25.6947 79.5087 25.6145L78.8952 24.1712C78.8359 24.0108 78.9348 23.8304 79.1129 23.8304C80.6564 23.7702 82.0416 23.6901 83.2685 23.5898C83.3872 23.5698 83.4862 23.4695 83.4862 23.3493V21.9861C83.4862 21.8458 83.3674 21.7456 83.2487 21.7456H78.3609C78.2224 21.7456 78.1235 21.8658 78.1235 21.9861V27.7394C78.1235 27.8797 78.0047 27.98 77.886 27.98H75.828C75.6895 27.98 75.5905 27.8597 75.5905 27.7394V21.9661C75.5905 21.8258 75.4718 21.7255 75.3531 21.7255H74.6209C74.4824 21.7255 74.3834 21.6052 74.3834 21.485V20.1419C74.3834 20.0015 74.5021 19.9013 74.6209 19.9013H75.3531C75.4916 19.9013 75.5905 19.781 75.5905 19.6608V19.3601C75.5905 19.2197 75.7093 19.1195 75.828 19.1195H77.8662C78.0047 19.1195 78.1037 19.2398 78.1037 19.3601V19.6608C78.1037 19.8011 78.2224 19.9013 78.3411 19.9013H83.2289C83.3674 19.9013 83.4664 19.781 83.4664 19.6608V18.7787C83.4664 18.6384 83.3477 18.5382 83.2289 18.5382H76.6393C76.5008 18.5382 76.4019 18.4179 76.4019 18.2976V10.66C76.4019 10.5197 76.5206 10.4194 76.6393 10.4194H92.7473C92.8858 10.4194 92.9847 10.5397 92.9847 10.66V18.2375C92.9847 18.3778 92.866 18.478 92.7473 18.478H86.2368C86.0983 18.478 85.9993 18.5983 85.9993 18.7186V19.6006C85.9993 19.7409 86.1181 19.8412 86.2368 19.8412H94.0731C94.2116 19.8412 94.3106 19.9615 94.3106 20.0817V25.0933H94.3303ZM83.8226 8.79569H82.002C81.8635 8.79569 81.7646 8.91596 81.7646 9.03624V9.5374C81.7646 9.67772 81.6458 9.77795 81.5271 9.77795H79.4889C79.3504 9.77795 79.2514 9.65767 79.2514 9.5374V9.03624C79.2514 8.89592 79.1327 8.79569 79.014 8.79569H74.9375C74.799 8.79569 74.7 8.67541 74.7 8.55513V7.01157C74.7 6.87124 74.8188 6.77101 74.9375 6.77101H78.9942C79.1327 6.77101 79.2316 6.65074 79.2316 6.53046V5.80879C79.2316 5.66847 79.3504 5.56824 79.4691 5.56824H81.5073C81.6458 5.56824 81.7448 5.68851 81.7448 5.80879V6.49037C81.7448 6.63069 81.8635 6.73092 81.9822 6.73092H83.8028C83.9413 6.73092 84.0403 6.8512 84.0403 6.97148V8.51504C84.0601 8.67541 83.9611 8.79569 83.8226 8.79569ZM83.4862 13.3462V12.5042C83.4862 12.3639 83.3674 12.2637 83.2487 12.2637H79.1525C79.014 12.2637 78.915 12.384 78.915 12.5042V13.3462C78.915 13.4865 79.0337 13.5867 79.1525 13.5867H83.2487C83.3872 13.5867 83.4862 13.4865 83.4862 13.3462ZM83.4862 16.4333V15.5914C83.4862 15.451 83.3674 15.3508 83.2487 15.3508H79.1525C79.014 15.3508 78.915 15.4711 78.915 15.5914V16.4333C78.915 16.5736 79.0337 16.6739 79.1525 16.6739H83.2487C83.3872 16.6739 83.4862 16.5536 83.4862 16.4333ZM94.6668 8.79569H90.1549C90.0164 8.79569 89.9175 8.91596 89.9175 9.03624V9.5374C89.9175 9.67772 89.7987 9.77795 89.68 9.77795H87.7012C87.5626 9.77795 87.4637 9.65767 87.4637 9.5374V9.03624C87.4637 8.89592 87.345 8.79569 87.2262 8.79569H85.6431C85.5046 8.79569 85.4057 8.67541 85.4057 8.55513V7.01157C85.4057 6.87124 85.5244 6.77101 85.6431 6.77101H87.2262C87.3647 6.77101 87.4637 6.65074 87.4637 6.53046V5.80879C87.4637 5.66847 87.5824 5.56824 87.7012 5.56824H89.68C89.8185 5.56824 89.9175 5.68851 89.9175 5.80879V6.49037C89.9175 6.63069 90.0362 6.73092 90.1549 6.73092H94.6668C94.8053 6.73092 94.9042 6.8512 94.9042 6.97148V8.51504C94.924 8.67541 94.8053 8.79569 94.6668 8.79569ZM90.5507 13.3462V12.5042C90.5507 12.3639 90.432 12.2637 90.3133 12.2637H86.2566C86.1181 12.2637 86.0191 12.384 86.0191 12.5042V13.3462C86.0191 13.4865 86.1379 13.5867 86.2566 13.5867H90.3133C90.4518 13.5867 90.5507 13.4865 90.5507 13.3462ZM90.5507 16.4333V15.5914C90.5507 15.451 90.432 15.3508 90.3133 15.3508H86.2566C86.1181 15.3508 86.0191 15.4711 86.0191 15.5914V16.4333C86.0191 16.5736 86.1379 16.6739 86.2566 16.6739H90.3133C90.4518 16.6739 90.5507 16.5536 90.5507 16.4333ZM87.4043 21.7055H86.2566C86.1181 21.7055 86.0191 21.8258 86.0191 21.946V23.0085C86.0191 23.1488 86.1379 23.2691 86.2962 23.249L87.3054 23.1288C87.4835 23.1087 87.5824 22.8882 87.4835 22.7479L87.3647 22.5675C87.2658 22.4472 87.3252 22.2668 87.4637 22.2066L87.5231 22.1866C87.7407 22.0864 87.6814 21.7055 87.4043 21.7055Z" fill="#003A44"/>
<path d="M123.993 18.5181H99.3566C99.2181 18.5181 99.1192 18.3979 99.1192 18.2776V16.6739C99.1192 16.5335 99.2379 16.4333 99.3566 16.4333H110.161C110.3 16.4333 110.399 16.313 110.399 16.1928V14.8697C110.399 14.7294 110.28 14.6292 110.161 14.6292H101.909C101.771 14.6292 101.672 14.5089 101.672 14.3886V12.845C101.672 12.7047 101.791 12.6045 101.909 12.6045H110.161C110.3 12.6045 110.399 12.4842 110.399 12.3639V11.2213C110.399 11.081 110.28 10.9607 110.141 10.9807C108.044 11.101 106.006 11.2012 104.007 11.2413C103.908 11.2413 103.809 11.1812 103.769 11.081L103.136 9.35699C103.077 9.19662 103.196 9.0162 103.374 9.0162C105.946 9.03625 108.222 8.95606 110.181 8.7556C110.3 8.73555 110.399 8.63532 110.399 8.51505V7.75329C110.399 7.61296 110.517 7.51273 110.636 7.51273H112.635C112.773 7.51273 112.872 7.63301 112.872 7.75329V8.1943C112.872 8.33463 112.991 8.45491 113.13 8.43486C114.91 8.33463 116.929 8.03394 119.205 7.55282C119.323 7.53278 119.422 7.59292 119.482 7.69315L120.194 9.17657C120.273 9.3169 120.174 9.49731 120.036 9.5374C117.958 9.99847 115.643 10.3793 113.11 10.6399C112.991 10.66 112.892 10.7602 112.892 10.8805V12.3439C112.892 12.4842 113.011 12.5844 113.13 12.5844H121.362C121.5 12.5844 121.599 12.7047 121.599 12.825V14.3886C121.599 14.5289 121.48 14.6292 121.362 14.6292H113.13C112.991 14.6292 112.892 14.7494 112.892 14.8697V16.1928C112.892 16.3331 113.011 16.4333 113.13 16.4333H123.993C124.132 16.4333 124.231 16.5536 124.231 16.6739V18.2776C124.231 18.3979 124.112 18.5181 123.993 18.5181ZM123.301 9.75791H121.223C121.085 9.75791 120.986 9.63764 120.986 9.51736V6.93139C120.986 6.79107 120.867 6.69084 120.748 6.69084H102.602C102.463 6.69084 102.365 6.81111 102.365 6.93139V9.51736C102.365 9.65768 102.246 9.75791 102.127 9.75791H100.069C99.9305 9.75791 99.8316 9.63764 99.8316 9.51736V4.70626C99.8316 4.56593 99.9503 4.4657 100.069 4.4657H109.924C110.122 4.4657 110.221 4.26524 110.141 4.08482L109.488 2.94218C109.409 2.80186 109.488 2.62144 109.647 2.58135L111.823 2.02006C111.922 2.00001 112.041 2.0401 112.101 2.14033C112.437 2.74172 112.813 3.48343 113.209 4.32538C113.248 4.40556 113.327 4.4657 113.426 4.4657H123.36C123.499 4.4657 123.598 4.58598 123.598 4.70626V9.51736C123.538 9.65768 123.42 9.75791 123.301 9.75791ZM121.362 27.8597H119.145C119.007 27.8597 118.908 27.7394 118.908 27.6191V27.118C118.908 26.9777 118.789 26.8774 118.67 26.8774H104.66C104.521 26.8774 104.423 26.9977 104.423 27.118V27.6392C104.423 27.7795 104.304 27.8797 104.185 27.8797H102.068C101.929 27.8797 101.83 27.7595 101.83 27.6392V20.3022C101.83 20.1619 101.949 20.0617 102.068 20.0617H121.362C121.5 20.0617 121.599 20.182 121.599 20.3022V27.6191C121.599 27.7595 121.5 27.8597 121.362 27.8597ZM118.908 24.3716V22.4873C118.908 22.347 118.789 22.2467 118.67 22.2467H104.66C104.521 22.2467 104.423 22.367 104.423 22.4873V24.3716C104.423 24.512 104.541 24.6122 104.66 24.6122H118.67C118.789 24.6122 118.908 24.512 118.908 24.3716Z" fill="#003A44"/>
<path d="M115.385 27.0979L116.87 27.5991C117.364 27.7594 117.859 27.8597 118.374 27.8597L121.995 27.8797C122.707 27.8797 123.301 27.2984 123.301 26.5767C123.301 26.3963 123.261 26.2359 123.202 26.0956C123.756 25.9352 124.172 25.4341 124.172 24.8327C124.172 24.4919 124.053 24.1912 123.835 23.9507C124.033 23.7101 124.172 23.4094 124.172 23.0686C124.172 22.7278 124.053 22.4271 123.835 22.1866C124.033 21.946 124.172 21.6453 124.172 21.3045C124.172 20.5829 123.598 19.9815 122.885 19.9815H120.352C120.61 19.2197 120.709 18.1974 120.709 17.7564V17.3153C120.709 16.3531 119.937 15.5513 118.987 15.5513H118.552C118.354 15.5513 118.176 15.6916 118.136 15.8921L117.899 16.8543C117.562 18.1974 116.513 19.6608 115.425 19.9414" fill="#BDD9D8"/>
<path d="M129 24.091C129 23.8705 128.822 23.6901 128.604 23.6901H127.773C127.555 23.6901 127.377 23.8705 127.377 24.091C127.377 24.3115 127.555 24.4919 127.773 24.4919H128.604C128.822 24.4919 129 24.3115 129 24.091Z" fill="#00A8BA"/>
<path d="M127.259 22.367L127.832 21.8057C127.991 21.6453 127.991 21.3847 127.832 21.2444C127.674 21.0841 127.417 21.0841 127.278 21.2444L126.705 21.8057C126.546 21.9661 126.546 22.2267 126.705 22.367C126.843 22.5274 127.1 22.5274 127.259 22.367Z" fill="#00A8BA"/>
<path d="M127.793 26.9375C127.951 26.7772 127.951 26.5166 127.793 26.3762L127.239 25.7949C127.08 25.6345 126.823 25.6345 126.685 25.7949C126.526 25.9553 126.526 26.2159 126.685 26.3562L127.239 26.9375C127.397 27.0979 127.635 27.0979 127.793 26.9375Z" fill="#00A8BA"/>
<path d="M115.385 27.0979L116.87 27.5991C117.364 27.7594 117.859 27.8597 118.374 27.8597L121.995 27.8797C122.707 27.8797 123.301 27.2984 123.301 26.5767C123.301 26.3963 123.261 26.2359 123.202 26.0956C123.756 25.9352 124.172 25.4341 124.172 24.8327C124.172 24.4919 124.053 24.1912 123.835 23.9507C124.033 23.7101 124.172 23.4094 124.172 23.0686C124.172 22.7278 124.053 22.4271 123.835 22.1866C124.033 21.946 124.172 21.6453 124.172 21.3045C124.172 20.5829 123.598 19.9815 122.885 19.9815H120.352C120.61 19.2197 120.709 18.1974 120.709 17.7564V17.3153C120.709 16.3531 119.937 15.5513 118.987 15.5513H118.552C118.354 15.5513 118.176 15.6916 118.136 15.8921L117.899 16.8543C117.562 18.1974 116.513 19.6608 115.425 19.9414C115.425 19.9414 114.653 20.182 114.653 20.4225L114.633 26.5767C114.653 26.7772 114.97 26.8774 115.385 27.0979ZM122.034 22.6076H122.905C123.143 22.6076 123.34 22.808 123.34 23.0486C123.34 23.2891 123.143 23.4896 122.905 23.4896H122.034C121.797 23.4896 121.599 23.6901 121.599 23.9306C121.599 24.1712 121.797 24.3716 122.034 24.3716H122.905C123.143 24.3716 123.34 24.5721 123.34 24.8126C123.34 25.0532 123.143 25.2537 122.905 25.2537H122.034C121.797 25.2537 121.599 25.4541 121.599 25.6947C121.599 25.9352 121.797 26.1357 122.034 26.1357C122.272 26.1357 122.47 26.3362 122.47 26.5767C122.47 26.8173 122.272 27.0177 122.034 27.0177L118.413 26.9977C117.998 26.9977 117.582 26.9175 117.186 26.7972L115.544 26.2359L115.564 20.8034C116.236 20.6831 116.909 20.2421 117.523 19.5204C118.116 18.8188 118.591 17.8967 118.809 17.0547L118.967 16.4333H119.066C119.541 16.4333 119.937 16.8342 119.937 17.3153V17.7564C119.937 18.3377 119.759 19.4803 119.521 19.9815H118.631C118.393 19.9815 118.195 20.182 118.195 20.4225C118.195 20.6631 118.393 20.8635 118.631 20.8635L122.964 20.8836C123.202 20.8836 123.4 21.084 123.4 21.3246C123.4 21.5651 123.202 21.7656 122.964 21.7656H122.094C121.856 21.7656 121.658 21.9661 121.658 22.2066C121.599 22.4071 121.797 22.6076 122.034 22.6076Z" fill="#003A44"/>
</g>
<g clip-path="url(#clip1)">
<path d="M29 10.5971H19.3333V1H9.56044V10.5971H0V20.4029H9.56044V30H19.3333V20.4029H29V10.5971Z" fill="#CD3072"/>
<path d="M16.5 0.5H10.1V10H0.5V20.1H9.7V29.9H19.6V20.3H29.7V15" stroke="#003A44" stroke-miterlimit="10" stroke-linecap="round" stroke-linejoin="round"/>
<path d="M16.3 22.5V16.9H21.1" stroke="#003A44" stroke-miterlimit="10" stroke-linecap="round" stroke-linejoin="round"/>
</g>
<defs>
<clipPath id="clip0">
<rect width="88" height="26" fill="white" transform="translate(41 2)"/>
</clipPath>
<clipPath id="clip1">
<rect width="31.7" height="30.4" fill="white"/>
</clipPath>
</defs>
</svg>
