<svg xmlns="http://www.w3.org/2000/svg" viewBox="0 0 91 66"><defs><style>.cls-1{fill:#e6ed2f;}.cls-2{fill:#003a44;}.cls-3{fill:#00a8ba;}.cls-4{fill:none;}</style></defs><g id="圖層_1" data-name="圖層 1"><path class="cls-1" d="M16.47,36.75,53.4,11.8s8.07,5.86,7.8,23.5-7.36,24.28-7.36,24.28Z"/><path class="cls-2" d="M35.48,19.75h.2a1,1,0,0,0,.81-1.14,1,1,0,0,0-1.17-.82,1,1,0,0,0-.82,1.15A1,1,0,0,0,35.48,19.75Z"/><path class="cls-2" d="M54,6.24c-2.08,0-4,1.29-5.66,3.55a1.51,1.51,0,0,0-1.42.14l-9.49,6.33a1,1,0,1,0,1.11,1.66l8.05-5.36a42,42,0,0,0-3.35,12.78l-.12,1c0,.38-.07.76-.1,1.15-.06.61-.1,1.23-.13,1.85,0,.27,0,.54,0,.81,0,.82,0,1.65-.06,2.5V33c0,8.31,1.51,15.61,3.92,20.48L14.53,34l19-12.7a1,1,0,1,0-1.11-1.67L12.54,32.87,7.13,29.69a1,1,0,0,0-1,0,1,1,0,0,0-.5.87V38a1,1,0,0,0,.53.89,1.12,1.12,0,0,0,.47.11,1,1,0,0,0,.56-.17l5.4-3.7,34.59,21a1.49,1.49,0,0,0,.81.23,1.51,1.51,0,0,0,.41-.06C50,58.49,52,59.76,54,59.76c6.28,0,11.2-11.75,11.2-26.76S60.29,6.24,54,6.24ZM7.63,36.08V32.3l3,1.75ZM54,57.76c-1.54,0-3.11-1.18-4.51-3.34a1.39,1.39,0,0,0-.2-.51c-2.81-4.61-4.49-12.46-4.5-21,0-.31,0-.61,0-.91,0-.14,0-.28,0-.42,0-.42,0-.84,0-1.25v-.07c.54-13.28,5-22,9.15-22,4.44,0,9.2,10,9.2,24.76S58.45,57.76,54,57.76Z"/><path class="cls-3" d="M72.66,42.79a1.52,1.52,0,0,1-1-.43,1.5,1.5,0,0,1,0-2.12,11.85,11.85,0,0,0,.21-16.36l-.24-.26a1.5,1.5,0,1,1,2.2-2l.24.26a14.83,14.83,0,0,1-.27,20.49A1.49,1.49,0,0,1,72.66,42.79Z"/><path class="cls-3" d="M77.5,49.05a1.52,1.52,0,0,1-1-.43,1.5,1.5,0,0,1,0-2.12,20.79,20.79,0,0,0,.38-28.71l-.41-.43a1.5,1.5,0,0,1,2.2-2l.4.43a23.77,23.77,0,0,1-.43,32.84A1.45,1.45,0,0,1,77.5,49.05Z"/><rect class="cls-4" x="0.5" y="0.5" width="90" height="65"/></g></svg>