<svg width="447" height="243" viewBox="0 0 447 243" fill="none" xmlns="http://www.w3.org/2000/svg">
<g clip-path="url(#clip0)">
<path d="M78.065 215.553C108.507 215.553 133.186 190.853 133.186 160.384C133.186 129.915 108.507 105.215 78.065 105.215C47.6226 105.215 22.9442 129.915 22.9442 160.384C22.9442 190.853 47.6226 215.553 78.065 215.553Z" stroke="#00A8BA" stroke-width="3" stroke-miterlimit="10" stroke-linecap="round" stroke-linejoin="round"/>
<path d="M101.466 198.627C100.552 199.725 99.181 200.64 97.4442 201.555C96.3472 202.104 95.0675 202.652 93.6049 203.018C92.7822 203.293 90.7712 203.842 90.0399 204.116C89.8571 204.116 89.3086 203.476 89.3086 202.012C89.2172 200.64 89.3086 200.365 89.4 200.365C89.4 200.365 89.4 200.365 89.4914 200.365C91.2282 200.274 93.1479 199.725 93.5135 198.81C93.6963 198.444 93.6963 198.169 93.6963 197.986C93.6963 197.712 93.6963 197.62 93.7877 197.529C93.9705 197.529 94.6104 197.895 94.8847 198.169C95.3417 198.444 95.7988 198.718 96.1644 198.81C96.3472 198.81 96.6215 198.901 96.8957 198.901C98.084 198.901 99.7294 198.535 100.186 198.444C100.644 198.352 101.009 198.352 101.192 198.535C101.375 198.444 101.466 198.535 101.466 198.627Z" fill="#EB889D"/>
<path d="M99.9019 141.023C99.9019 141.531 99.7248 141.836 99.5477 141.938C98.5737 142.75 97.3341 143.563 97.3341 143.563C97.3341 143.563 93.3494 147.728 91.1357 149.557C90.0732 150.37 88.8335 149.963 87.8595 149.151C87.1511 148.541 86.6198 148.033 86 147.525C86.3542 146.509 87.4168 143.055 87.5938 142.242C87.7709 142.649 88.8335 144.681 89.2762 145.392C89.3648 145.595 89.6304 145.9 89.8075 146.103C89.9846 146.103 90.2503 146.103 90.4274 146.103C90.8701 145.798 95.9173 142.242 96.36 141.734C96.5371 141.633 96.5371 141.43 96.5371 141.227C96.36 140.414 96.6257 139.195 96.8913 138.687C97.0684 138.382 97.5111 138.484 98.2195 138.179C100.61 137.264 99.9019 140.109 99.9019 141.023Z" fill="#EB889D"/>
<path d="M51.6472 182.799C55.0294 182.433 57.2233 181.152 59.0515 180.146C60.5141 179.322 61.7939 178.59 63.3478 178.59C63.3478 178.59 68.7411 178.499 69.1981 176.578C69.838 174.107 73.2202 164.684 73.2202 164.684L78.7049 170.814C78.7049 170.814 72.946 179.414 72.3975 180.237C71.4834 181.518 60.5141 183.256 56.5834 183.714C53.2926 184.08 51.0988 184.629 51.0074 184.72C51.2816 184.08 51.4644 183.531 51.6472 182.799Z" fill="#EB889D"/>
<path d="M72.3061 163.952C72.3061 163.952 69.1067 172.003 68.1012 175.663C68.1012 175.663 67.7356 176.761 66.9129 176.852C66.0902 176.944 62.9822 176.578 61.0626 177.401C59.1429 178.224 55.0294 181.244 50.7331 181.335C50.7331 181.335 48.4479 178.316 45.8883 179.505C45.8883 179.505 43.146 188.288 45.0656 192.314C45.0656 192.314 46.4368 192.131 47.0767 189.844C47.7166 187.556 50.1847 187.099 50.1847 187.099C50.1847 187.099 50.8245 186.367 50.4589 185.544C50.0933 184.72 51.9215 184.446 52.6528 184.263C53.6583 184.08 69.381 182.616 72.0319 180.329L78.3393 170.814" stroke="#003A44" stroke-miterlimit="10" stroke-linecap="round" stroke-linejoin="round"/>
<path d="M72.8614 135.955C76.8834 132.844 78.1632 133.301 78.1632 133.301L78.8031 132.478L79.8086 128.635C79.8086 128.635 78.5288 126.348 78.9859 122.963L78.346 122.597C78.346 122.597 78.1632 129.916 73.0442 132.661C67.9252 135.406 65 133.118 65 133.118C69.662 131.472 71.1245 127.812 71.1245 127.812C70.4847 129.093 67.1025 130.008 67.1025 130.008C68.108 129.825 72.3129 121.682 74.4153 120.035C77.0663 117.931 78.5288 119.395 78.5288 119.395L78.8031 118.937L80.0828 119.395H80.2656C80.9969 118.48 81.5454 118.205 83.3736 118.022C84.562 117.931 85.8417 118.114 86.8472 118.663C88.7669 119.761 89.5896 121.225 88.9497 124.793L89.4067 127.995L88.4926 128.452C88.4926 128.452 87.9442 132.57 84.0135 131.472L83.7393 133.576C83.7393 133.576 85.2018 133.85 86.6644 137.51L89.5896 144.372C89.681 144.555 89.9552 144.738 90.2295 144.555L95.4399 141.536L96.0798 138.882C96.2626 138.333 96.6282 137.968 97.1767 137.876C97.8166 137.785 98.4564 137.693 98.6393 137.602C99.0049 137.51 100.833 139.614 99.7362 142.085L97.2681 143.731L91.3264 149.129C90.3209 150.044 88.6755 150.044 87.6699 149.038L86.116 147.483L82.4595 158.919C82.4595 158.919 85.9331 163.585 89.9552 176.577L90.4123 180.511L92.2405 194.143C92.2405 194.143 93.0632 197.711 93.9773 198.443C93.9773 198.443 94.2515 197.711 95.3485 198.26C96.4454 198.809 96.4454 199.815 99.7362 198.992C103.027 198.169 102.387 200.273 102.387 200.273C102.387 200.273 97.9994 204.573 90.7779 205.671C90.7779 205.671 88.9497 204.481 89.8638 201.188C89.8638 201.188 90.0466 200.547 89.8638 199.632C89.7724 199.083 89.0411 195.881 88.3098 193.32C87.345 191.243 85.5153 186.791 85.9153 183.591M70.6675 137.785C70.119 138.242 69.5706 138.699 69.0221 139.248C69.0221 139.248 65.1828 142.725 65.0914 144.28C65 145.744 73.227 151.783 73.227 151.783L75.238 154.344C75.0552 154.619 74.8724 154.71 74.8724 154.71C74.8724 154.71 71.8558 156.449 71.4902 160.108C71.1245 163.768 74.5067 166.604 74.5067 166.604C74.5067 166.604 79.2601 172.002 80.8141 173.923C82.4595 175.936 84.8239 178.395 84.9153 180.591M76.2436 150.776L71.216 143.823L75.4209 141.078C75.4209 141.078 76.9749 147.849 76.9749 150.319C76.9749 150.502 76.9748 150.685 76.8834 150.868L76.2436 150.776Z" stroke="#003A44" stroke-miterlimit="10" stroke-linecap="round" stroke-linejoin="round"/>
<path d="M77.1509 150.411C77.1509 150.411 78.3393 150.137 78.6135 150.594C78.9791 151.052 79.162 151.418 79.162 151.418C79.619 151.966 79.7104 152.79 79.3448 153.43L78.7963 154.254C78.1564 155.443 76.4196 155.626 75.5969 154.62C75.4141 154.437 75.3227 154.254 75.2313 153.979" stroke="#003A44" stroke-miterlimit="10" stroke-linecap="round" stroke-linejoin="round"/>
<path d="M223.866 111.71C254.308 111.71 278.987 87.0104 278.987 56.5414C278.987 26.0724 254.308 1.37238 223.866 1.37238C193.423 1.37238 168.745 26.0724 168.745 56.5414C168.745 87.0104 193.423 111.71 223.866 111.71Z" stroke="#00A8BA" stroke-width="3" stroke-miterlimit="10"/>
<path d="M247.712 31H241.204C241.204 31.1876 241.204 31.3752 241.204 31.5628C241.204 37.66 233.302 42.6315 223.448 42.6315C213.686 42.6315 205.691 37.66 205.691 31.5628C205.691 31.3752 205.691 31.1876 205.691 31H199.462C197.045 31 195 33.0637 195 35.5025V82.4975C195 85.0302 196.952 87 199.462 87H247.526C249.943 87 251.988 84.9364 251.988 82.4975V35.5025C252.174 32.9698 250.129 31 247.712 31ZM246.689 77.2446C246.689 79.7772 244.644 80.8409 242.134 80.8409H223.68H205.226C202.716 80.8409 200.671 78.7772 200.671 76.2446V41.1307C200.671 40.2864 201.694 39.9112 202.251 40.5678C206.063 44.6013 214.244 47.3216 223.727 47.3216C233.209 47.3216 241.39 44.6013 245.202 40.5678C245.759 40.005 246.782 40.3802 246.782 41.1307V76.2446L246.689 77.2446Z" fill="#E6ED2F"/>
<path d="M231.544 27.9962L230.539 29.1856C230.447 29.2771 230.264 29.3686 230.173 29.3686C230.082 29.3686 229.899 29.2771 229.807 29.2771C229.716 29.1856 229.625 29.0026 229.625 28.9111C229.625 28.7281 229.625 28.6366 229.716 28.5452L230.721 27.4473C230.904 27.2643 231.27 27.2643 231.453 27.4473C231.544 27.5388 231.636 27.6302 231.636 27.8132C231.636 27.7217 231.636 27.9047 231.544 27.9962Z" fill="#003A44"/>
<path d="M226.974 25.9834C227.065 25.7089 227.431 25.526 227.614 25.6175C227.705 25.7089 227.888 25.8004 227.888 25.8919C227.979 25.9834 227.979 26.1664 227.888 26.3494L227.339 27.8132C227.248 27.9962 227.065 28.1792 226.882 28.1792C226.791 28.1792 226.791 28.1792 226.699 28.1792C226.608 28.1792 226.425 27.9962 226.425 27.9047C226.334 27.8132 226.334 27.6303 226.425 27.4473L226.974 25.9834Z" fill="#003A44"/>
<path d="M224.048 33.9431C224.414 34.1261 224.688 34.4006 224.688 34.858C224.688 35.407 224.231 35.8644 223.683 35.8644C223.134 35.8644 222.769 35.407 222.769 34.858C222.769 34.4006 223.043 34.0346 223.409 33.9431V29.4601C223.409 29.2771 223.591 29.0941 223.683 29.0941C223.866 29.0941 224.048 29.2771 224.048 29.4601V33.9431Z" fill="#003A44"/>
<path d="M223.774 27.7218C223.5 27.7218 223.226 27.4473 223.226 27.1728V25.6175C223.226 25.343 223.409 25.0685 223.774 25.0685C224.048 25.0685 224.323 25.343 224.323 25.6175V27.1728C224.231 27.4473 224.048 27.7218 223.774 27.7218Z" fill="#003A44"/>
<path d="M219.569 26.4409C219.478 26.2579 219.569 26.1664 219.569 25.9834C219.661 25.8919 219.752 25.7089 219.844 25.7089C220.118 25.6175 220.392 25.8004 220.483 26.0749L221.032 27.5388C221.123 27.6303 221.032 27.8132 221.032 27.9047C220.94 27.9962 220.849 28.1792 220.758 28.1792C220.666 28.1792 220.666 28.1792 220.575 28.1792C220.392 28.1792 220.118 27.9962 220.118 27.8132L219.569 26.4409Z" fill="#003A44"/>
<path d="M215.913 27.9962C215.821 27.9047 215.73 27.7217 215.821 27.6302C215.821 27.4473 215.913 27.3558 216.004 27.2643C216.187 27.0813 216.553 27.0813 216.736 27.2643L217.741 28.4537C217.833 28.5452 217.924 28.7281 217.833 28.8196C217.833 29.0026 217.741 29.0941 217.65 29.1856C217.558 29.2771 217.467 29.3686 217.284 29.3686C217.101 29.3686 217.01 29.2771 216.918 29.1856L215.913 27.9962Z" fill="#003A44"/>
<path d="M215.364 80.329H241.874C244.342 80.329 246.353 78.4077 246.353 76.029V41.0794C246.353 40.439 245.53 40.073 244.982 40.5305C241.325 44.3731 233.19 47.0263 223.774 47.0263C214.359 47.0263 206.223 44.3731 202.567 40.5305C202.11 40.073 201.196 40.3475 201.196 41.0794V76.029C201.196 78.4077 203.207 80.329 205.675 80.329H210.794" stroke="#003A44" stroke-miterlimit="10" stroke-linecap="round" stroke-linejoin="round"/>
<path d="M247.998 30.8324H241.508C241.508 31.0154 241.508 31.1984 241.508 31.3814C241.508 37.4198 233.555 42.3603 223.683 42.3603C213.81 42.3603 205.858 37.4198 205.858 31.3814C205.858 31.1984 205.858 31.0154 205.858 30.8324H199.55C197.082 30.8324 195.071 32.8452 195.071 35.3155V81.8844C195.071 84.3546 197.082 86.3674 199.55 86.3674H247.815C250.283 86.3674 252.294 84.3546 252.294 81.8844V35.3155C252.477 32.8452 250.466 30.8324 247.998 30.8324Z" stroke="#003A44" stroke-miterlimit="10" stroke-linecap="round" stroke-linejoin="round"/>
<path d="M237.212 26.3494C238.217 27.6303 238.766 29.0026 238.766 30.4665C238.766 35.59 232.001 39.7986 223.683 39.7986C215.364 39.7986 208.6 35.59 208.6 30.4665C208.6 25.343 215.364 21.1344 223.683 21.1344C227.339 21.1344 230.63 21.9578 233.281 23.2387" stroke="#003A44" stroke-miterlimit="10" stroke-linecap="round" stroke-linejoin="round"/>
<path d="M235.383 24.6111C235.475 24.7026 235.201 24.5196 235.383 24.6111" stroke="#003A44" stroke-miterlimit="10" stroke-linecap="round" stroke-linejoin="round"/>
<path d="M243.885 49.5881V74.9311C243.885 76.3035 242.788 77.4013 241.417 77.4013H218.29" stroke="#003A44" stroke-miterlimit="10" stroke-linecap="round" stroke-linejoin="round"/>
<path d="M346.448 241.353C376.537 241.353 400.929 216.94 400.929 186.825C400.929 156.709 376.537 132.296 346.448 132.296C316.359 132.296 291.967 156.709 291.967 186.825C291.967 216.94 316.359 241.353 346.448 241.353Z" stroke="#00A8BA" stroke-width="3" stroke-miterlimit="10"/>
<path d="M342.216 194C348.376 194.842 351.409 194.842 356.433 194.842H358.613H358.707C369.512 194.374 368.943 198.493 368.943 198.493C369.512 205.794 365.816 207.105 356.907 210.381C354.821 211.129 352.547 211.972 349.988 213.002C347.429 214.031 344.68 215.248 341.552 216.746C335.013 219.928 327.525 219.741 320.891 216.184C315.394 213.189 311.508 208.509 311.034 204.109V204.016V203.828C310.749 201.114 312.266 198.68 315.488 196.995L316.531 197.183C313.498 198.774 312.076 201.02 312.361 203.454C312.645 205.981 314.635 207.853 317.953 208.883C320.985 209.819 323.924 210.287 327.051 210.287C328.283 210.287 329.516 210.193 330.748 210.1C334.349 209.725 338.33 208.696 343.543 206.917C349.229 204.952 352.073 204.484 356.717 203.641L358.802 203.267C362.783 202.518 367.711 199.991 367.522 198.306C367.332 196.621 361.93 195.123 357.854 195.123H357.76H355.674C350.841 195.123 347.997 195.217 342.026 194.374L342.216 194Z" fill="#EB889D"/>
<path d="M350.561 212.716C353.944 213.357 356.869 213.265 359.337 212.899C366.193 211.802 371.677 206.495 373.231 199.725C375.425 190.393 370.855 183.073 370.215 180.237C369.392 176.395 372.134 157.547 360.342 156.45C347.819 155.26 346.814 176.395 346.082 177.767C345.26 179.322 340.506 183.622 338.769 192.131" stroke="#003A44" stroke-miterlimit="10" stroke-linecap="round" stroke-linejoin="round"/>
<path d="M313.357 198.352C316.739 194.967 325.24 189.661 343.888 193.046C345.442 193.32 348.916 193.686 350.47 193.778C353.761 193.961 357.326 194.144 360.982 193.869C366.375 193.595 368.844 196.248 369.026 197.163C370.489 206.038 361.165 208.782 350.927 212.351C350.927 212.351 329.628 225.708 316.556 212.625C314.271 210.338 312.443 208.416 311.62 204.025C311.163 202.012 311.803 199.816 313.357 198.352Z" stroke="#003A44" stroke-miterlimit="10" stroke-linecap="round" stroke-linejoin="round"/>
<path d="M357.509 195.608C349.19 195.516 340.598 194.51 340.598 194.51C338.404 194.235 336.301 194.144 334.473 194.052C334.107 194.052 333.925 194.51 334.29 194.784C336.21 196.248 336.667 198.352 336.85 199.725C336.85 200.091 338.221 204.391 328.44 205.489C318.75 206.587 319.39 201.006 319.39 201.006C319.39 201.006 319.39 198.81 320.853 196.706C321.036 196.431 320.761 195.974 320.396 196.157C317.288 197.437 315.551 199.176 314.637 200.365C313.906 201.463 313.631 202.835 314.18 204.025C316.831 210.246 331.914 209.789 339.683 206.953C348.276 203.842 349.556 204.574 357.6 202.561C365.644 200.548 366.741 199.359 366.924 198.627C367.198 197.163 365.827 195.608 357.509 195.608Z" stroke="#003A44" stroke-miterlimit="10" stroke-linecap="round" stroke-linejoin="round"/>
<path d="M359.794 157.822C359.794 157.822 360.708 157.639 361.622 158.188C362.536 158.737 362.079 159.56 361.805 159.743C361.531 159.926 359.063 160.018 359.063 158.554C359.063 157.913 359.794 157.822 359.794 157.822Z" stroke="#003A44" stroke-miterlimit="10"/>
<path d="M319.299 200.914C319.299 200.914 318.567 206.495 328.348 205.397C338.038 204.299 336.758 199.908 336.758 199.633C336.484 197.346 335.57 192.68 327.526 193.32C319.299 193.869 319.299 200.914 319.299 200.914Z" stroke="#003A44" stroke-miterlimit="10"/>
<path d="M367.107 175.48C367.29 177.218 367.564 179.78 368.204 182.341C369.301 186.733 370.398 186.367 370.763 191.033" stroke="#003A44" stroke-miterlimit="10" stroke-linecap="round" stroke-linejoin="round"/>
<path d="M367.015 173.833C367.015 173.833 367.015 173.558 367.015 173.833" stroke="#003A44" stroke-miterlimit="10" stroke-linecap="round" stroke-linejoin="round"/>
<path d="M325.972 195.15C326.063 195.059 325.789 195.15 325.972 195.15" stroke="#003A44" stroke-miterlimit="10" stroke-linecap="round" stroke-linejoin="round"/>
<path d="M321.127 200.731C321.127 200.731 320.944 197.072 324.692 195.608" stroke="#003A44" stroke-miterlimit="10" stroke-linecap="round" stroke-linejoin="round"/>
<path d="M332.553 216.376C332.553 216.376 338.952 216.834 347.088 212.259" stroke="#003A44" stroke-miterlimit="10" stroke-linecap="round" stroke-linejoin="round"/>
<path d="M210.702 80.1461H210.794" stroke="#003A44" stroke-miterlimit="10" stroke-linecap="round" stroke-linejoin="round"/>
<path d="M130.261 83.3483H140.682" stroke="#00A8BA" stroke-width="2" stroke-miterlimit="10" stroke-linecap="round" stroke-linejoin="round"/>
<path d="M135.471 78.1333V88.5633" stroke="#00A8BA" stroke-width="2" stroke-miterlimit="10" stroke-linecap="round" stroke-linejoin="round"/>
<path d="M0.914112 210.429H11.335" stroke="#00A8BA" stroke-width="2" stroke-miterlimit="10" stroke-linecap="round" stroke-linejoin="round"/>
<path d="M6.12454 205.214V215.644" stroke="#00A8BA" stroke-width="2" stroke-miterlimit="10" stroke-linecap="round" stroke-linejoin="round"/>
<path d="M219.478 175.937H229.899" stroke="#00A8BA" stroke-width="2" stroke-miterlimit="10" stroke-linecap="round" stroke-linejoin="round"/>
<path d="M224.688 170.722V181.152" stroke="#00A8BA" stroke-width="2" stroke-miterlimit="10" stroke-linecap="round" stroke-linejoin="round"/>
<path d="M334.107 66.7884H344.62" stroke="#00A8BA" stroke-width="2" stroke-miterlimit="10" stroke-linecap="round" stroke-linejoin="round"/>
<path d="M339.409 61.5734V72.0034" stroke="#00A8BA" stroke-width="2" stroke-miterlimit="10" stroke-linecap="round" stroke-linejoin="round"/>
<path d="M435.665 236.87H446.086" stroke="#00A8BA" stroke-width="2" stroke-miterlimit="10" stroke-linecap="round" stroke-linejoin="round"/>
<path d="M440.875 231.655V242.085" stroke="#00A8BA" stroke-width="2" stroke-miterlimit="10" stroke-linecap="round" stroke-linejoin="round"/>
<circle cx="71.5" cy="136.5" r="0.5" fill="#003A44"/>
<circle cx="85.5" cy="181.5" r="0.5" fill="#003A44"/>
</g>
<defs>
<clipPath id="clip0">
<rect width="447" height="243" fill="white"/>
</clipPath>
</defs>
</svg>
