<svg xmlns="http://www.w3.org/2000/svg" viewBox="0 0 91 66"><defs><style>.cls-1{fill:#eb889d;}.cls-2{fill:#fff;}.cls-3{fill:#00a8ba;}.cls-4{fill:none;}</style></defs><g id="圖層_1" data-name="圖層 1"><ellipse class="cls-1" cx="69.21" cy="19.3" rx="9.15" ry="9.2"/><path class="cls-1" d="M46.42,11.16c2.17.18,3.28,2.38,4.1,5a31.08,31.08,0,0,0,4.73,9.18,15.91,15.91,0,0,0,5.27,3.82,24,24,0,0,0,9.13,2.34c1,.07,2.23.17,3.44.32,2,.3,14,2.6,14.79,13.69l-.19,11.34a3.43,3.43,0,0,1-3.55,3.34c-3.38,0-3.52-3.55-3.52-3.55l0-7.89a.94.94,0,0,0-1.88,0l0,7.57a2,2,0,0,1-2,2H60a2,2,0,0,1-2-2V37.75a1.45,1.45,0,0,0-.93-1.36c-5.44-2.09-9.83-8.85-9.83-8.85a45,45,0,0,1-4.74-12.43C42.15,13,43.43,10.93,46.42,11.16Z"/><path class="cls-2" d="M45.38,3.72a.92.92,0,0,0-.94.93V6.58a.94.94,0,0,0,1.88,0V4.66A.93.93,0,0,0,45.38,3.72Z"/><path class="cls-2" d="M41.4,7.83,40.08,6.5a.94.94,0,0,0-1.33,1.32l1.32,1.33A.94.94,0,0,0,41.4,7.83Z"/><path class="cls-2" d="M52,6.54a.92.92,0,0,0-1.32,0L49.33,7.85a1,1,0,0,0,0,1.33.93.93,0,0,0,1.32,0L52,7.86A.92.92,0,0,0,52,6.54Z"/><path class="cls-3" d="M21.84,29.43A10.13,10.13,0,1,0,11.71,19.3,10.14,10.14,0,0,0,21.84,29.43Zm0-18.26a8.13,8.13,0,1,1-8.13,8.13A8.15,8.15,0,0,1,21.84,11.17Z"/><path class="cls-3" d="M33.29,43.47a1,1,0,0,0-1,1v0a1,1,0,0,0,1,1,1,1,0,0,0,1-1A1,1,0,0,0,33.29,43.47Z"/><path class="cls-3" d="M69.16,29.43A10.13,10.13,0,1,0,59,19.3,10.14,10.14,0,0,0,69.16,29.43Zm0-18.26A8.13,8.13,0,1,1,61,19.3,8.14,8.14,0,0,1,69.16,11.17Z"/><path class="cls-3" d="M73.2,31.09c-1.1-.14-2.3-.25-3.57-.33a23.41,23.41,0,0,1-8.92-2.31,15.16,15.16,0,0,1-5-3.66A31.36,31.36,0,0,1,51,15.67,17.3,17.3,0,0,0,50,13a4.17,4.17,0,0,0-1-1.8A4.53,4.53,0,0,0,45.5,9.81,4.55,4.55,0,0,0,42,11.19,4.17,4.17,0,0,0,41,13a16.3,16.3,0,0,0-1,2.68,31.61,31.61,0,0,1-4.65,9.12,15.16,15.16,0,0,1-5,3.66,23.41,23.41,0,0,1-8.92,2.31c-1.26.08-2.47.19-3.59.33-2.51.4-15.08,3-15.91,15.1l.19,11.68a4.45,4.45,0,0,0,4.62,4.41h0a4.57,4.57,0,0,0,4.55-4.65V57.5a3.05,3.05,0,0,0,3.05,2.85H31.24a3,3,0,0,0,3.05-3.05V47.63a1,1,0,0,0-2,0V57.3a1,1,0,0,1-1.05,1.05H14.31a1,1,0,0,1-1.05-1.05l0-7.8a2,2,0,0,0-3.91,0l0,8.08c0,.28-.18,2.7-2.57,2.7h0a2.47,2.47,0,0,1-2.63-2.45l-.2-11.59c.73-10.54,12-12.82,14.2-13.17,1.05-.13,2.21-.24,3.44-.32a25.23,25.23,0,0,0,9.68-2.51,17,17,0,0,0,5.7-4.2,31.93,31.93,0,0,0,4.61-8.62,56.62,56.62,0,0,0,2.9,7.92,18.6,18.6,0,0,1-1,1.8c0,.07-4.37,6.71-9.54,8.72a2.46,2.46,0,0,0-1.58,2.32v3.24a1,1,0,0,0,2,0V38.18a.49.49,0,0,1,.31-.46c5.77-2.24,10.3-9.2,10.49-9.5s.27-.44.41-.69c.14.25.28.48.41.69s4.72,7.26,10.5,9.5a.49.49,0,0,1,.3.46V57.3a3,3,0,0,0,3,3.05H76.69a3.05,3.05,0,0,0,3-2.84v.15a4.56,4.56,0,0,0,4.56,4.62h0a4.43,4.43,0,0,0,4.61-4.42l.19-11.76C88.31,34.05,75.74,31.49,73.2,31.09ZM42.91,14.71a3.07,3.07,0,0,1,0-1.05c.65-1.18,1.38-1.77,2.25-1.84h.66c.87.07,1.6.66,2.25,1.84a3.07,3.07,0,0,1,0,1.05,45.07,45.07,0,0,1-2.59,8.15A45.07,45.07,0,0,1,42.91,14.71Zm44,43.1a2.47,2.47,0,0,1-2.62,2.47h0c-2.36,0-2.55-2.42-2.56-2.66l0-8.12a2,2,0,0,0-1.9-2h-.06a2,2,0,0,0-1.36.55,1.94,1.94,0,0,0-.59,1.4l-.05,7.8a1,1,0,0,1-1,1.05H59.76a1,1,0,0,1-1-1.05V38.18a2.46,2.46,0,0,0-1.58-2.32c-5.17-2-9.49-8.65-9.53-8.72a16.55,16.55,0,0,1-1-1.8,55.11,55.11,0,0,0,2.91-7.93A31.6,31.6,0,0,0,54.12,26a17.13,17.13,0,0,0,5.7,4.2,25.27,25.27,0,0,0,9.68,2.51c1.23.08,2.39.19,3.42.32,2.24.35,13.5,2.63,14.22,13.08Z"/><rect class="cls-4" x="0.5" y="0.5" width="90" height="65"/></g></svg>