<svg xmlns="http://www.w3.org/2000/svg" viewBox="0 0 91 66"><defs><style>.cls-1{fill:#eb889d;}.cls-2{fill:#003a44;}.cls-3{fill:#e4fffd;}.cls-4{fill:none;}</style></defs><g id="圖層_1" data-name="圖層 1"><path class="cls-1" d="M42.89,41.1V41a.5.5,0,0,0-1,0l-.13,0c-6.07-1.18-8.81.63-8.81.63V47.9H52.47V40.37A21.61,21.61,0,0,1,42.89,41.1Z"/><path class="cls-1" d="M42.39,34.53a.69.69,0,0,0,.68-.68v-.67a.68.68,0,0,0-.68-.68.67.67,0,0,0-.67.68v.67A.68.68,0,0,0,42.39,34.53Z"/><path class="cls-1" d="M42.39,39.1a.68.68,0,0,0,.68-.68V36.89a.68.68,0,0,0-.68-.68.67.67,0,0,0-.67.68v1.53A.67.67,0,0,0,42.39,39.1Z"/><path class="cls-1" d="M43.29,31.83c6.28-.38,6.94-5.65,6.94-5.65s-3.45,2.29-7.95-.58a6.77,6.77,0,0,0-8.09.32,7.57,7.57,0,0,0,6.41,5.77Z"/><path class="cls-2" d="M42.56,62.23a29.13,29.13,0,0,1-18.78-6.84,30.44,30.44,0,0,1-4-4A1,1,0,0,1,20,49.93a1,1,0,0,1,1.41.15,27.59,27.59,0,0,0,3.71,3.78,27.26,27.26,0,0,0,38.37-3.34A26.92,26.92,0,0,0,68.63,41a1,1,0,0,1,1.91.59,29.21,29.21,0,0,1-28,20.64Z"/><path class="cls-2" d="M19.11,49.63a1.12,1.12,0,0,1-.94-.51,1,1,0,0,1-.05-1,.91.91,0,0,1,.37-.45,1.07,1.07,0,0,1,1.39.36,1,1,0,0,1,.07,1,1,1,0,0,1-.38.45A.86.86,0,0,1,19.11,49.63Z"/><path class="cls-2" d="M17.81,47.45a1,1,0,0,1-.86-.51,18.58,18.58,0,0,1-1.35-2.67A29.24,29.24,0,0,1,61.39,10.61a1,1,0,1,1-1.28,1.53A27.25,27.25,0,0,0,17.44,43.5,18.18,18.18,0,0,0,18.68,46a1,1,0,0,1-.37,1.36A1,1,0,0,1,17.81,47.45Z"/><path class="cls-2" d="M54.42,47.48H54V42.34a11.38,11.38,0,0,0-6.9-10.46A9.93,9.93,0,0,0,52.51,23V18.64h.13a1,1,0,0,0,1-1V15.21a1,1,0,0,0-1-1H32.27a1,1,0,0,0-1,1v2.43a1,1,0,0,0,1,1h.39V23a9.93,9.93,0,0,0,5.45,8.85,11.39,11.39,0,0,0-6.9,10.46v5.14h-.46a1,1,0,0,0-1,1v2.31a1,1,0,0,0,1,1H54.42a1,1,0,0,0,1-1V48.48A1,1,0,0,0,54.42,47.48ZM33.27,16.21H51.64v.43H33.27ZM34.66,23V18.68H50.51V23a7.93,7.93,0,1,1-15.85,0ZM33.21,42.34a9.38,9.38,0,1,1,18.75,0v5.14H33.21Zm20.21,7.45H31.75v-.31h.08a1,1,0,0,0,.38.08H53a1,1,0,0,0,.39-.08h.07Z"/><path class="cls-3" d="M75.19,45.08a1,1,0,0,1-.85-.47l-3.93-6.29-6.88,3.39a1,1,0,1,1-.88-1.8l8.5-4.18L76,43.55a1,1,0,0,1-.32,1.37A1,1,0,0,1,75.19,45.08Z"/><path class="cls-3" d="M76.67,40a1,1,0,0,1-.85-.47l-3.91-6.3L65,36.6a1,1,0,0,1-.88-1.8l8.52-4.16,4.86,7.83a1,1,0,0,1-.33,1.38A1,1,0,0,1,76.67,40Z"/><rect class="cls-4" x="0.5" y="0.5" width="90" height="65"/></g></svg>