<svg width="375" height="110" viewBox="0 0 375 110" fill="none" xmlns="http://www.w3.org/2000/svg">
<g clip-path="url(#clip0)">
<path d="M23.2742 88.6276C20.4071 95.8366 16.4437 102.791 11.1311 109.406C10.7938 109.83 10.2879 109.915 9.86624 109.661L0.758983 104.996C0.168697 104.657 4.39836e-05 103.894 0.506003 103.385C5.98723 97.2784 10.1192 91.172 13.0707 85.0656C13.3236 84.5567 13.8296 84.3871 14.3356 84.5567L22.6839 87.2706C23.1898 87.4403 23.4428 88.1187 23.2742 88.6276ZM50.9333 73.1072C50.9333 76.4148 50.1743 78.7895 48.7408 80.4009C47.3072 82.0124 45.5364 82.8605 43.5125 83.1149C41.4887 83.3693 37.5253 83.5389 31.6225 83.5389C31.2009 83.5389 30.7792 83.2845 30.6106 82.7757L28.0808 74.8882C27.8278 74.2097 28.4181 73.5312 29.0927 73.5312C31.2009 73.616 32.8874 73.6161 34.2366 73.6161C37.0194 73.6161 38.7902 73.4464 39.4648 73.0224C40.1395 72.5983 40.4768 71.9198 40.4768 70.8173V65.8134C40.4768 65.0501 39.7178 64.5413 39.0432 64.8805C33.3933 67.2552 27.4062 69.4603 20.913 71.4958C20.4071 71.6654 19.9011 71.411 19.7324 70.9869L18.2146 68.2729C17.7086 67.4248 16.528 67.5945 16.2751 68.5274C14.8415 74.2945 12.2274 79.6376 8.34837 84.5567C8.01106 85.0655 7.25212 85.0656 6.83049 84.6415L0.33735 78.5351C-0.0842825 78.1958 -0.0842825 77.5174 0.253024 77.0933C4.80665 71.411 6.99914 63.5235 6.99914 53.6006V33.7548C6.99914 33.1612 7.5051 32.7371 8.01106 32.7371H49.837C50.4273 32.7371 50.8489 33.246 50.8489 33.7548V73.1072H50.9333ZM58.5226 26.6307L50.6803 30.532C50.1743 30.7864 49.584 30.6168 49.3311 30.108C48.4878 28.4965 47.3072 26.6307 45.8737 24.4256C45.6207 24.0864 45.2834 23.9167 44.8617 24.0016C30.9479 26.1218 17.3713 27.4788 4.04772 28.0725C3.54176 28.0725 3.12012 27.7332 2.95147 27.3092L1.01196 19.5914C0.843309 19.0825 1.18062 18.5736 1.68657 18.404C7.25212 16.1141 12.5647 10.1773 17.6243 0.678498C17.8773 0.254443 18.3832 9.59635e-06 18.8049 0.169632L28.0808 2.71396C28.7554 2.88359 29.0927 3.64689 28.6711 4.24056C25.8883 8.82036 22.8525 12.8065 19.5638 16.1989C18.8892 16.8774 19.3951 17.98 20.3227 17.98C26.7315 17.6407 32.4658 17.1319 37.441 16.2837C38.2 16.1141 38.6216 15.1812 38.0313 14.5875C36.8507 13.1457 35.5858 11.7888 34.4896 10.5166C34.068 10.0077 34.1523 9.24442 34.7426 8.90518L42.4163 4.74943C42.8379 4.495 43.3439 4.57981 43.6812 4.91905C50.09 11.7039 55.2339 18.4888 58.9443 25.2737C59.2816 25.6978 59.0286 26.2915 58.5226 26.6307ZM40.3924 54.9576V42.7448C40.3924 42.1511 39.8865 41.7271 39.3805 41.7271H18.8892C18.2989 41.7271 17.8773 42.2359 17.8773 42.7448V44.1018C17.8773 44.6107 18.2989 45.1195 18.8049 45.1195C24.9607 45.6284 30.5262 46.4765 35.5858 47.6639C36.1761 47.8335 36.5134 48.4272 36.3448 49.0208L34.068 55.1272C33.8993 55.6361 33.3933 55.8905 32.8874 55.8057C28.1651 54.788 23.4428 54.1095 18.8892 53.6006C18.2989 53.5158 17.7929 54.0247 17.7086 54.6184C17.7086 56.7386 17.54 59.0285 17.3713 61.4033C17.287 62.0817 17.9616 62.6754 18.6362 62.5058C26.8159 60.5551 33.8993 58.3501 39.8022 55.8057C40.2238 55.7209 40.3924 55.3817 40.3924 54.9576ZM49.584 107.032L40.1395 109.152C39.5492 109.322 39.0432 108.897 38.8746 108.304C37.7783 102.367 35.9231 96.1758 33.309 89.6453C33.056 89.0517 33.3933 88.3732 34.068 88.2036L43.0066 86.1681C43.5125 86.0833 44.0185 86.3377 44.1871 86.7618C47.3915 94.31 49.4154 100.586 50.4273 105.675C50.5116 106.353 50.09 106.947 49.584 107.032ZM79.5199 107.71L69.991 109.915C69.4851 110 68.9791 109.746 68.8105 109.322C66.0277 102.452 62.9076 96.1758 59.3659 90.3238C59.0286 89.7302 59.2816 88.9669 59.9562 88.7972L68.8105 86.5921C69.2321 86.5073 69.7381 86.677 69.991 87.101C74.7133 94.8188 78.1707 101.264 80.1945 106.438C80.5319 106.947 80.1102 107.625 79.5199 107.71ZM106.336 37.3169C106.336 37.9106 105.83 38.3346 105.324 38.3346H70.497C63.6665 38.3346 60.2935 34.7726 60.2935 27.6484V2.2051C60.2935 1.61142 60.7994 1.18737 61.3054 1.18737H69.991C70.5813 1.18737 71.003 1.69623 71.003 2.2051V8.73555C71.003 9.32923 71.5089 9.75329 72.0149 9.75329H102.288C102.878 9.75329 103.3 10.2622 103.3 10.771V17.7255C103.3 18.3192 102.794 18.7433 102.288 18.7433H72.0149C71.4246 18.7433 71.003 19.2521 71.003 19.761V26.2915C71.003 28.1573 72.1835 29.175 74.5447 29.175H105.324C105.914 29.175 106.336 29.6839 106.336 30.1928V37.3169ZM107.769 67.8489C108.275 68.0185 108.613 68.5274 108.444 69.1211C107.348 73.9553 105.914 77.4325 104.312 79.3832C102.625 81.5035 100.264 82.6908 97.2285 83.1149C94.1927 83.5389 88.5429 83.7086 80.1945 83.7086C75.3879 83.7086 71.6776 83.5389 68.9791 83.2845C66.365 83.0301 64.1725 82.0972 62.6546 80.4857C61.0524 78.8743 60.2935 76.2452 60.2935 72.3439V44.5258C60.2935 43.9322 60.7994 43.5081 61.3054 43.5081H69.991C70.5813 43.5081 71.003 44.017 71.003 44.5258V50.6322C71.003 51.2259 71.5089 51.65 72.0149 51.65H102.457C103.047 51.65 103.469 52.1588 103.469 52.6677V59.8766C103.469 60.4703 102.963 60.8944 102.457 60.8944H72.0149C71.4246 60.8944 71.003 61.4033 71.003 61.9121V70.478C71.003 72.0046 71.5089 72.9376 72.5208 73.3616C73.5328 73.7857 76.7372 73.9553 82.1341 73.9553C87.6153 73.9553 91.0727 73.8705 92.6749 73.6161C94.2771 73.3616 95.4576 72.6831 96.3009 71.411C97.0598 70.3084 97.7345 68.4426 98.2404 65.8134C98.3247 65.2197 98.9994 64.8805 99.5896 65.0501L107.769 67.8489ZM108.36 106.014L99.421 109.915C98.915 110.17 98.3248 109.915 98.0718 109.406C95.289 103.554 91.157 97.2784 85.5914 90.6631C85.1698 90.1542 85.3385 89.3061 85.9287 89.0517L94.1927 85.4048C94.6144 85.2352 95.1203 85.32 95.3733 85.6592C101.866 93.4618 106.336 99.7379 108.781 104.487C109.119 105.166 108.95 105.759 108.36 106.014Z" fill="#003A44"/>
<path d="M230.38 12.128H141.078C140.488 12.128 140.066 12.6369 140.066 13.1457V59.4526C140.066 81.9275 137.705 98.4657 133.067 108.982C132.814 109.576 132.055 109.746 131.549 109.406L123.623 104.318C123.201 104.063 123.032 103.554 123.201 103.045C127.502 92.2745 129.61 77.7718 129.61 59.4526V3.8165C129.61 3.22282 130.116 2.79877 130.622 2.79877H230.296C230.886 2.79877 231.308 3.30763 231.308 3.8165V11.0254C231.392 11.6191 230.886 12.128 230.38 12.128ZM227.26 97.7024C227.26 103.809 225.658 107.371 222.538 108.473C219.418 109.491 213.346 109.915 204.239 109.576C203.817 109.576 203.396 109.322 203.311 108.897L200.781 101.943C200.528 101.264 201.034 100.501 201.793 100.501C210.732 100.501 215.454 100.332 216.129 100.077C216.803 99.8227 217.141 99.229 217.141 98.2961V84.4719C217.141 83.8782 216.635 83.4541 216.129 83.4541H208.455C207.612 83.4541 207.106 84.4719 207.612 85.1504C209.973 88.458 211.997 91.6808 213.683 94.9036C213.936 95.4973 213.683 96.1758 213.093 96.3454L206.347 98.7201C205.841 98.8898 205.335 98.6353 205.082 98.2113C204.913 97.872 204.66 97.5328 204.492 97.2783C204.239 96.9391 203.901 96.7695 203.48 96.8543C189.65 98.6353 176.833 99.8227 165.111 100.501C164.69 100.501 164.268 100.247 164.099 99.9075L161.485 93.8011C161.232 93.1226 161.654 92.3593 162.413 92.3593C168.99 92.1049 174.893 91.7656 180.121 91.3416C180.627 91.2568 181.049 90.8327 181.049 90.3238V84.5567C181.049 83.963 180.543 83.5389 180.037 83.5389H159.208C158.618 83.5389 158.197 84.0478 158.197 84.5567V108.897C158.197 109.491 157.691 109.915 157.185 109.915H148.415C147.824 109.915 147.403 109.406 147.403 108.897V84.4719C147.403 83.8782 146.897 83.4541 146.391 83.4541H143.271C142.68 83.4541 142.259 82.9453 142.259 82.4364V76.7541C142.259 76.1604 142.765 75.7363 143.271 75.7363H146.391C146.981 75.7363 147.403 75.2274 147.403 74.7186V73.4464C147.403 72.8527 147.909 72.4287 148.415 72.4287H157.1C157.691 72.4287 158.112 72.9376 158.112 73.4464V74.7186C158.112 75.3123 158.618 75.7363 159.124 75.7363H179.953C180.543 75.7363 180.965 75.2274 180.965 74.7186V70.9869C180.965 70.3932 180.459 69.9692 179.953 69.9692H151.872C151.282 69.9692 150.86 69.4603 150.86 68.9514V36.6384C150.86 36.0447 151.366 35.6207 151.872 35.6207H220.514C221.104 35.6207 221.526 36.1295 221.526 36.6384V68.697C221.526 69.2907 221.02 69.7147 220.514 69.7147H192.77C192.18 69.7147 191.758 70.2236 191.758 70.7325V74.4642C191.758 75.0578 192.264 75.4819 192.77 75.4819H226.164C226.754 75.4819 227.176 75.9907 227.176 76.4996V97.7024H227.26ZM182.483 28.751H174.725C174.134 28.751 173.713 29.2598 173.713 29.7687V31.889C173.713 32.4827 173.207 32.9067 172.701 32.9067H164.015C163.425 32.9067 163.003 32.3978 163.003 31.889V29.7687C163.003 29.175 162.497 28.751 161.991 28.751H144.62C144.03 28.751 143.608 28.2421 143.608 27.7332V21.2028C143.608 20.6091 144.114 20.185 144.62 20.185H161.907C162.497 20.185 162.919 19.6762 162.919 19.1673V16.1141C162.919 15.5204 163.425 15.0964 163.931 15.0964H172.616C173.207 15.0964 173.628 15.6052 173.628 16.1141V18.9977C173.628 19.5914 174.134 20.0154 174.64 20.0154H182.398C182.989 20.0154 183.41 20.5243 183.41 21.0332V27.5636C183.494 28.2421 183.073 28.751 182.483 28.751ZM181.049 48.0031V44.441C181.049 43.8473 180.543 43.4233 180.037 43.4233H162.581C161.991 43.4233 161.57 43.9322 161.57 44.441V48.0031C161.57 48.5968 162.076 49.0208 162.581 49.0208H180.037C180.627 49.0208 181.049 48.5968 181.049 48.0031ZM181.049 61.064V57.5019C181.049 56.9083 180.543 56.4842 180.037 56.4842H162.581C161.991 56.4842 161.57 56.9931 161.57 57.5019V61.064C161.57 61.6577 162.076 62.0817 162.581 62.0817H180.037C180.627 62.0817 181.049 61.5729 181.049 61.064ZM228.694 28.751H209.467C208.877 28.751 208.455 29.2598 208.455 29.7687V31.889C208.455 32.4827 207.949 32.9067 207.443 32.9067H199.011C198.42 32.9067 197.999 32.3978 197.999 31.889V29.7687C197.999 29.175 197.493 28.751 196.987 28.751H190.241C189.65 28.751 189.229 28.2421 189.229 27.7332V21.2028C189.229 20.6091 189.735 20.185 190.241 20.185H196.987C197.577 20.185 197.999 19.6762 197.999 19.1673V16.1141C197.999 15.5204 198.505 15.0964 199.011 15.0964H207.443C208.033 15.0964 208.455 15.6052 208.455 16.1141V18.9977C208.455 19.5914 208.961 20.0154 209.467 20.0154H228.694C229.284 20.0154 229.705 20.5243 229.705 21.0332V27.5636C229.79 28.2421 229.284 28.751 228.694 28.751ZM211.154 48.0031V44.441C211.154 43.8473 210.648 43.4233 210.142 43.4233H192.855C192.264 43.4233 191.843 43.9322 191.843 44.441V48.0031C191.843 48.5968 192.349 49.0208 192.855 49.0208H210.142C210.732 49.0208 211.154 48.5968 211.154 48.0031ZM211.154 61.064V57.5019C211.154 56.9083 210.648 56.4842 210.142 56.4842H192.855C192.264 56.4842 191.843 56.9931 191.843 57.5019V61.064C191.843 61.6577 192.349 62.0817 192.855 62.0817H210.142C210.732 62.0817 211.154 61.5729 211.154 61.064ZM197.746 83.3693H192.855C192.264 83.3693 191.843 83.8782 191.843 84.3871V88.882C191.843 89.4757 192.349 89.9846 193.023 89.8998L197.324 89.3909C198.083 89.3061 198.505 88.3732 198.083 87.7795L197.577 87.0162C197.155 86.5073 197.408 85.744 197.999 85.4896L198.252 85.4048C199.179 84.9807 198.926 83.3693 197.746 83.3693Z" fill="#003A44"/>
<path d="M353.665 69.8844H248.679C248.089 69.8844 247.667 69.3755 247.667 68.8666V62.0817C247.667 61.4881 248.173 61.064 248.679 61.064H294.721C295.311 61.064 295.733 60.5551 295.733 60.0463V54.4487C295.733 53.8551 295.227 53.431 294.721 53.431H259.557C258.967 53.431 258.545 52.9221 258.545 52.4133V45.8828C258.545 45.2891 259.051 44.8651 259.557 44.8651H294.721C295.311 44.8651 295.733 44.3562 295.733 43.8473V39.0131C295.733 38.4194 295.227 37.9106 294.637 37.9954C285.698 38.5042 277.013 38.9283 268.496 39.0979C268.074 39.0979 267.652 38.8435 267.484 38.4194L264.785 31.1257C264.532 30.4472 265.038 29.6839 265.797 29.6839C276.76 29.7687 286.457 29.4295 294.805 28.5813C295.311 28.4965 295.733 28.0725 295.733 27.5636V24.3408C295.733 23.7471 296.239 23.3231 296.745 23.3231H305.262C305.852 23.3231 306.274 23.8319 306.274 24.3408V26.2066C306.274 26.8003 306.78 27.3092 307.37 27.2244C314.96 26.8003 323.561 25.5281 333.258 23.4927C333.764 23.4079 334.186 23.6623 334.439 24.0864L337.475 30.3624C337.812 30.9561 337.39 31.7194 336.8 31.889C327.946 33.8396 318.08 35.451 307.286 36.5536C306.78 36.6384 306.358 37.0625 306.358 37.5713V43.7625C306.358 44.3562 306.864 44.7803 307.37 44.7803H342.45C343.04 44.7803 343.462 45.2891 343.462 45.798V52.4133C343.462 53.0069 342.956 53.431 342.45 53.431H307.37C306.78 53.431 306.358 53.9399 306.358 54.4487V60.0463C306.358 60.6399 306.864 61.064 307.37 61.064H353.665C354.256 61.064 354.677 61.5729 354.677 62.0817V68.8666C354.677 69.3755 354.171 69.8844 353.665 69.8844ZM350.714 32.8219H341.86C341.269 32.8219 340.848 32.313 340.848 31.8042V20.8635C340.848 20.2699 340.342 19.8458 339.836 19.8458H262.508C261.918 19.8458 261.497 20.3547 261.497 20.8635V31.8042C261.497 32.3978 260.991 32.8219 260.485 32.8219H251.715C251.124 32.8219 250.703 32.313 250.703 31.8042V11.4495C250.703 10.8558 251.209 10.4318 251.715 10.4318H293.709C294.552 10.4318 294.974 9.58366 294.637 8.82036L291.854 3.98613C291.517 3.39245 291.854 2.62915 292.529 2.45953L301.805 0.0848167C302.226 5.56558e-06 302.732 0.169628 302.985 0.593683C304.419 3.13802 306.021 6.27603 307.707 9.83809C307.876 10.1773 308.213 10.4318 308.635 10.4318H350.967C351.557 10.4318 351.979 10.9406 351.979 11.4495V31.8042C351.726 32.3978 351.22 32.8219 350.714 32.8219ZM342.45 109.406H333.005C332.415 109.406 331.993 108.897 331.993 108.389V106.268C331.993 105.675 331.487 105.251 330.982 105.251H271.278C270.688 105.251 270.266 105.759 270.266 106.268V108.473C270.266 109.067 269.76 109.491 269.255 109.491H260.232C259.641 109.491 259.22 108.982 259.22 108.473V77.4325C259.22 76.8389 259.726 76.4148 260.232 76.4148H342.45C343.04 76.4148 343.462 76.9237 343.462 77.4325V108.389C343.462 108.982 343.04 109.406 342.45 109.406ZM331.993 94.6492V86.677C331.993 86.0833 331.487 85.6592 330.982 85.6592H271.278C270.688 85.6592 270.266 86.1681 270.266 86.677V94.6492C270.266 95.2429 270.772 95.6669 271.278 95.6669H330.982C331.487 95.6669 331.993 95.2429 331.993 94.6492Z" fill="#003A44"/>
<path d="M316.983 106.183L323.308 108.304C325.416 108.982 327.524 109.406 329.717 109.406L345.148 109.491C348.184 109.491 350.714 107.032 350.714 103.978C350.714 103.215 350.545 102.537 350.292 101.943C352.653 101.264 354.424 99.1442 354.424 96.5998C354.424 95.1581 353.918 93.8859 352.991 92.8682C353.834 91.8504 354.424 90.5783 354.424 89.1365C354.424 87.6947 353.918 86.4225 352.991 85.4048C353.834 84.387 354.424 83.1149 354.424 81.6731C354.424 78.6199 351.979 76.0756 348.943 76.0756H338.149C339.246 72.8527 339.667 68.5274 339.667 66.6615V64.7957C339.667 60.7248 336.378 57.3323 332.331 57.3323H330.476C329.632 57.3323 328.873 57.926 328.705 58.7741L327.693 62.845C326.259 68.5274 321.79 74.7186 317.152 75.9059" fill="#BDD9D8"/>
<path d="M375 93.4618C375 92.5289 374.241 91.7656 373.313 91.7656H369.772C368.844 91.7656 368.085 92.5289 368.085 93.4618C368.085 94.3948 368.844 95.1581 369.772 95.1581H373.313C374.241 95.1581 375 94.3948 375 93.4618Z" fill="#003A44"/>
<path d="M367.579 86.1681L370.025 83.7934C370.699 83.1149 370.699 82.0123 370.025 81.4187C369.35 80.7402 368.254 80.7402 367.664 81.4187L365.218 83.7934C364.543 84.4719 364.543 85.5744 365.218 86.1681C365.808 86.8466 366.905 86.8466 367.579 86.1681Z" fill="#003A44"/>
<path d="M369.856 105.505C370.531 104.827 370.531 103.724 369.856 103.13L367.495 100.671C366.82 99.9923 365.724 99.9923 365.134 100.671C364.459 101.349 364.459 102.452 365.134 103.046L367.495 105.505C368.17 106.184 369.181 106.184 369.856 105.505Z" fill="#003A44"/>
<path d="M316.983 106.183L323.308 108.304C325.416 108.982 327.524 109.406 329.717 109.406L345.148 109.491C348.184 109.491 350.714 107.032 350.714 103.978C350.714 103.215 350.545 102.537 350.292 101.943C352.653 101.264 354.424 99.1442 354.424 96.5998C354.424 95.1581 353.918 93.8859 352.991 92.8682C353.834 91.8504 354.424 90.5783 354.424 89.1365C354.424 87.6947 353.918 86.4225 352.991 85.4048C353.834 84.387 354.424 83.1149 354.424 81.6731C354.424 78.6199 351.979 76.0756 348.943 76.0756H338.149C339.246 72.8527 339.667 68.5274 339.667 66.6615V64.7957C339.667 60.7248 336.378 57.3323 332.331 57.3323H330.476C329.632 57.3323 328.873 57.926 328.705 58.7741L327.693 62.845C326.259 68.5274 321.79 74.7186 317.152 75.9059C317.152 75.9059 313.863 76.9237 313.863 77.9414L313.779 103.978C313.863 104.827 315.213 105.251 316.983 106.183ZM345.317 87.1858H349.027C350.039 87.1858 350.883 88.0339 350.883 89.0517C350.883 90.0694 350.039 90.9175 349.027 90.9175H345.317C344.305 90.9175 343.462 91.7656 343.462 92.7833C343.462 93.8011 344.305 94.6492 345.317 94.6492H349.027C350.039 94.6492 350.883 95.4973 350.883 96.515C350.883 97.5328 350.039 98.3809 349.027 98.3809H345.317C344.305 98.3809 343.462 99.229 343.462 100.247C343.462 101.264 344.305 102.113 345.317 102.113C346.329 102.113 347.172 102.961 347.172 103.978C347.172 104.996 346.329 105.844 345.317 105.844L329.885 105.759C328.114 105.759 326.344 105.42 324.657 104.911L317.658 102.537L317.742 79.5528C320.609 79.0439 323.477 77.1781 326.091 74.1249C328.62 71.1565 330.644 67.2552 331.572 63.6931L332.246 61.064H332.668C334.692 61.064 336.378 62.7602 336.378 64.7957V66.6615C336.378 69.121 335.62 73.9553 334.608 76.0756H330.813C329.801 76.0756 328.958 76.9237 328.958 77.9414C328.958 78.9591 329.801 79.8072 330.813 79.8072L349.28 79.8921C350.292 79.8921 351.136 80.7402 351.136 81.7579C351.136 82.7756 350.292 83.6237 349.28 83.6237H345.57C344.558 83.6237 343.715 84.4719 343.715 85.4896C343.462 86.3377 344.305 87.1858 345.317 87.1858Z" fill="#003A44"/>
</g>
<defs>
<clipPath id="clip0">
<rect width="375" height="110" fill="white"/>
</clipPath>
</defs>
</svg>
